<?xml version="1.0" standalone="no"?><!DOCTYPE svg PUBLIC "-//W3C//DTD SVG 1.1//EN" "http://www.w3.org/Graphics/SVG/1.1/DTD/svg11.dtd"><svg t="1758596423165" class="icon" viewBox="0 0 1024 1024" version="1.1" xmlns="http://www.w3.org/2000/svg" p-id="15083" xmlns:xlink="http://www.w3.org/1999/xlink" width="200" height="200"><path d="M996.087285 487.193252L557.600175 19.815769a62.655677 62.655677 0 0 0-91.443421 0L27.720959 487.193252a62.655677 62.655677 0 0 0 45.721711 105.606375h62.245157v314.715207a116.33122 116.33122 0 0 0 116.177275 116.228591h170.622544v-312.3034a21.398376 21.398376 0 0 1 21.347061-21.347061h136.087515a21.398376 21.398376 0 0 1 21.347061 21.347061v312.559975h170.622545a116.33122 116.33122 0 0 0 116.177275-116.22859v-314.971783h62.245157a62.706992 62.706992 0 0 0 45.773025-105.606375z m-182.425006 31.199551v389.122031a41.821766 41.821766 0 0 1-41.770451 41.821767h-96.215721v-237.896576a95.856515 95.856515 0 0 0-95.753885-95.753885H443.834707a95.856515 95.856515 0 0 0-95.753885 95.753885v238.153151H251.865102a41.821766 41.821766 0 0 1-41.770452-41.821766v-389.378607H100.434387l411.444078-438.58974 411.444078 438.58974z" fill="#BFCBD9" p-id="15084"></path></svg>