<?xml version="1.0" standalone="no"?><!DOCTYPE svg PUBLIC "-//W3C//DTD SVG 1.1//EN" "http://www.w3.org/Graphics/SVG/1.1/DTD/svg11.dtd"><svg t="1758596059977" class="icon" viewBox="0 0 1024 1024" version="1.1" xmlns="http://www.w3.org/2000/svg" p-id="11952" xmlns:xlink="http://www.w3.org/1999/xlink" width="200" height="200"><path d="M128 534.4V992c0 19.2 12.8 32 32 32h256c19.2 0 32-12.8 32-32v-192h128v192c0 19.2 12.8 32 32 32h256c19.2 0 32-12.8 32-32V534.4c51.2-19.2 96-67.2 96-150.4 0-6.4 0-9.6-3.2-16l-192-352c-6.4-9.6-16-16-28.8-16H256c-12.8 0-22.4 6.4-28.8 16l-192 352c-3.2 6.4-3.2 9.6-3.2 16 0 86.4 44.8 134.4 96 150.4zM640 960v-192c0-19.2-12.8-32-32-32h-192c-19.2 0-32 12.8-32 32v192H192V544c38.4-3.2 73.6-19.2 96-44.8 25.6 28.8 67.2 44.8 115.2 44.8 44.8 0 83.2-16 108.8-41.6 25.6 25.6 64 41.6 108.8 41.6 48 0 89.6-16 115.2-44.8 22.4 25.6 57.6 41.6 96 44.8v416h-192zM275.2 64h473.6L928 390.4c-3.2 57.6-32 89.6-80 89.6-38.4 0-80-19.2-80-64 0-19.2-12.8-32-32-32s-32 12.8-32 32c0 44.8-41.6 64-83.2 64-38.4 0-76.8-16-76.8-64 0-19.2-12.8-32-32-32s-32 12.8-32 32c0 48-38.4 64-76.8 64-41.6 0-83.2-19.2-83.2-64 0-19.2-12.8-32-32-32s-32 12.8-32 32c0 44.8-41.6 64-80 64C128 480 99.2 448 96 390.4L275.2 64z" p-id="11953" fill="#BFCBD9"></path></svg>