<?xml version="1.0" standalone="no"?><!DOCTYPE svg PUBLIC "-//W3C//DTD SVG 1.1//EN" "http://www.w3.org/Graphics/SVG/1.1/DTD/svg11.dtd"><svg t="1758595926990" class="icon" viewBox="0 0 1024 1024" version="1.1" xmlns="http://www.w3.org/2000/svg" p-id="8644" xmlns:xlink="http://www.w3.org/1999/xlink" width="200" height="200"><path d="M887.466667 170.666667H136.533333a68.266667 68.266667 0 0 0-68.266666 68.266666v546.133334a68.266667 68.266667 0 0 0 68.266666 68.266666h750.933334a68.266667 68.266667 0 0 0 68.266666-68.266666V238.933333a68.266667 68.266667 0 0 0-68.266666-68.266666zM136.533333 238.933333h750.933334v546.133334H136.533333V238.933333z" fill="#BFCBD9" p-id="8645"></path><path d="M904.533333 375.466667a34.133333 34.133333 0 0 1 2.56 68.181333L904.533333 443.733333H119.466667a34.133333 34.133333 0 0 1-2.56-68.181333L119.466667 375.466667h785.066666z" fill="#BFCBD9" p-id="8646"></path><path d="M819.2 648.533333v34.133334a34.133333 34.133333 0 0 1-34.133333 34.133333H546.133333a34.133333 34.133333 0 0 1-34.133333-34.133333v-34.133334h307.2z" fill="#BFCBD9" p-id="8647"></path></svg>