<svg xmlns="http://www.w3.org/2000/svg" xmlns:xlink="http://www.w3.org/1999/xlink" fill="none" version="1.1" width="27" height="24" viewBox="0 0 27 24"><g><g><path d="M14.8016553415625,7.5066581C14.8016553415625,5.3431959,14.8016553415625,3.2130184,14.8016553415625,1.04955629C14.8016553415625,0.98298821,14.8016553415625,0.88313611,14.8016553415625,0.816568054C14.8016553415625,0.783284027,14.8355965615625,0.783284027,14.8355965615625,0.75C14.9034789915625,0.75,14.9374228115625,0.75,15.0053052615625,0.75C16.3290334015625,0.75,17.6527615015625,0.75,18.9764872015625,0.75C19.0104289015625,0.75,19.0783138015625,0.75,19.1122546015625,0.75C19.1461964015625,0.75,19.1461964015625,0.75,19.180137201562502,0.75C19.180137201562502,0.75,19.2140784015625,0.783284027,19.2140784015625,0.783284027C19.2140784015625,0.816568054,19.2140784015625,0.816568054,19.2140784015625,0.8498521C19.2140784015625,0.91642015,19.2140784015625,0.98298821,19.2140784015625,1.04955629C19.2140784015625,3.8786988,19.2140784015625,6.7078409,19.2140784015625,9.5369835C19.2140784015625,9.6035528,19.2140784015625,9.7034044,19.2140784015625,9.7699728C19.2140784015625,9.8365412,19.248019701562498,9.8698244,19.3159046015625,9.8698244C19.3837867015625,9.8698244,19.485613301562502,9.8698244,19.553496401562498,9.8698244C19.7910871015625,9.8698244,19.9947391015625,9.9031086,20.2323303015625,9.9363918C20.9111657015625,10.0362444,21.5900002015625,10.2026644,22.2348933015625,10.4689369C23.9998627015625,11.234469,25.3914761015625,12.765535,25.9345441015625,14.596156C26.0363691015625,14.962281,26.1381931015625,15.361689,26.1721341015625,15.761098C26.240018101562498,16.227074,26.240018101562498,16.726336,26.206076101562502,17.19231C26.0363661015625,18.75666,25.4254151015625,20.121305,24.271397601562498,21.252962C23.4567957015625,22.051779,22.5064287015625,22.617607,21.3863502015625,22.950445C21.0469332015625,23.050301,20.7075157015625,23.116867,20.3680978015625,23.183434C20.0286808015625,23.250002,19.6553226015625,23.250002,19.2819638015625,23.250002C17.8224676015625,23.250002,16.3629746015625,23.250002,14.9374202315625,23.250002C14.8695377715625,23.250002,14.8016527615625,23.250002,14.7337703185625,23.250002C14.6998291015625,23.250002,14.6998291015625,23.216719,14.6998291015625,23.183434C14.6998291015625,23.15015,14.6998291015625,23.083582,14.6998291015625,23.050299C14.6998291015625,21.718935,14.6998291015625,20.42086,14.6998291015625,19.089499C14.6998291015625,19.056213,14.6998291015625,19.022928,14.6998291015625,19.022928C14.6998291015625,18.923079,14.6998291015625,18.889793,14.8355965615625,18.889793C14.8695377715625,18.889793,14.9374228115625,18.889793,14.9713640215625,18.889793C16.3290334015625,18.889793,17.6527615015625,18.889793,19.010431301562498,18.889793C19.1461987015625,18.889793,19.3159075015625,18.889793,19.4516745015625,18.889793C19.7571511015625,18.889793,20.0626273015625,18.823225,20.334159401562502,18.69009C20.9451113015625,18.423817,21.5560617015625,17.857988,21.7257709015625,17.025888C21.9973049015625,15.827663,21.2845259015625,14.662724,20.0626245015625,14.296597C19.8250337015625,14.230028,19.5874395015625,14.196745,19.3159075015625,14.196745C19.248024901562502,14.196745,19.1801400015625,14.196745,19.1122575015625,14.196745C17.754587901562502,14.196745,16.3629774015625,14.196745,15.0053078515625,14.196745C14.9374254015625,14.196745,14.8355991515625,14.196745,14.7677167135625,14.196745C14.7337755005625,14.196745,14.6998342806601,14.163463,14.6998342806601,14.130176C14.6998342806601,14.06361,14.6998342806601,13.963758,14.6998342806601,13.897188C14.8016553415625,11.833582,14.8016553415625,9.6701202,14.8016553415625,7.5066581Z" fill="#E62129" fill-opacity="1" style="mix-blend-mode:passthrough"/></g><g><path d="M14.0301709465625,7.5066581L14.0301709465625,0.81656814Q14.0301709465625,0.6943413,14.0641122165625,0.58474064L14.0641122165625,0L19.5016079265625,0L19.9854965265625,0.47452408L19.9854965265625,9.1476364Q20.1152038265625,9.1617823,20.2650704265625,9.1831198Q20.3163995265625,9.1904278,20.3423233265625,9.1940594Q21.5513377265625,9.3718777,22.5364275265625,9.778615Q25.7175187265625,11.158237,26.6757497265625,14.388322Q26.8923757265625,15.166829,26.9389687265625,15.677073Q27.038585726562502,16.380131,26.975567726562502,17.245287L26.974630726562502,17.25815L26.9732397265625,17.270977Q26.6821537265625,19.954157,24.8192147265625,21.780998Q23.453246126562497,23.120497,21.6118169265625,23.667688Q21.2353210265625,23.778456,20.5206585265625,23.918617Q20.1056957265625,24,19.2819304265625,24L14.7337372865625,24Q13.9283447265625,24,13.9283447265625,23.183434L13.9283447265625,19.022928Q13.9283447265625,18.139793,14.8355635365625,18.139793L19.4516415265625,18.139793Q19.7433014265625,18.139793,19.9867377265625,18.020435L20.0024686265625,18.012722L20.0185446265625,18.005714Q20.8097601265625,17.660873,20.969018926562498,16.880016Q21.1103196265625,16.255707,20.7906918265625,15.731824Q20.4679742265625,15.202879,19.8353724265625,15.01333Q19.5972619265625,14.946745,19.3158746265625,14.946745L14.7676836865625,14.946745Q14.4207295165625,14.946745,14.1731656165625,14.703977Q13.9283498765558,14.463904,13.9283498765558,14.130176L13.9283498765558,13.879211L13.9292359053525,13.861253Q14.0301709465625,11.815603,14.0301709465625,7.5066581ZM26.172101726562502,15.761098C26.1381597265625,15.361689,26.0363367265625,14.962281,25.9345107265625,14.596156C25.3914437265625,12.765535,23.9998307265625,11.234469,22.2348604265625,10.468937C21.5899672265625,10.202664,20.9111323265625,10.036244,20.2322969265625,9.9363918C19.994706126562498,9.9031086,19.7910542265625,9.8698244,19.5534634265625,9.8698244L19.3158717265625,9.8698244C19.2479868265625,9.8698244,19.214045026562502,9.8365412,19.214045026562502,9.7699728L19.214045026562502,0.78328413L19.1801042265625,0.75000006L14.8355635365625,0.75000006C14.8355635365625,0.78328413,14.8016223265625,0.78328413,14.8016223265625,0.81656814L14.8016223265625,7.5066581C14.8016223265625,9.6701202,14.8016223265625,11.833582,14.6998012065625,13.897188L14.6998012065625,14.130176C14.6998012065625,14.163463,14.733742476562501,14.196745,14.7676836865625,14.196745L19.3158746265625,14.196745C19.5874066265625,14.196745,19.8250007265625,14.230028,20.0625910265625,14.296597C21.2844929265625,14.662724,21.9972715265625,15.827663,21.7257380265625,17.025888C21.5560288265625,17.857988,20.945078326562502,18.423817,20.3341264265625,18.69009C20.062594426562498,18.823225,19.757117726562498,18.889793,19.4516415265625,18.889793L14.8355635365625,18.889793C14.6997960765625,18.889793,14.6997960765625,18.923079,14.6997960765625,19.022928L14.6997960765625,23.183434C14.6997960765625,23.216719,14.6997960765625,23.250002,14.7337372865625,23.250002L19.2819304265625,23.250002C19.6552891265625,23.250002,20.0286474265625,23.250002,20.3680649265625,23.183434C20.7074828265625,23.116867,21.0469002265625,23.050301,21.3863172265625,22.950445C22.506396326562502,22.617607,23.456762326562497,22.051779,24.2713647265625,21.252962C25.4253817265625,20.121305,26.0363337265625,18.75666,26.2060437265625,17.19231C26.2399847265625,16.726336,26.2399847265625,16.227074,26.172101726562502,15.761098Z" fill-rule="evenodd" fill="#FFFFFF" fill-opacity="1"/></g><g><path d="M9.5747328125,18.72343971875C8.9637813125,18.72343971875,8.352829912499999,18.72343971875,7.7079368125,18.72343971875C7.4364023125,18.72343971875,7.1988110125,18.72343971875,6.9272776125,18.69015671875C6.2484422125,18.623587718750002,5.6035485125,18.457166718750003,4.9586568125,18.190894718750002C3.2276285125,17.49193171875,1.8699577125,16.127284718749998,1.2250655925,14.42980001875C1.0553568924999999,13.96382331875,0.9195894625000001,13.49784751875,0.8517070045,12.99858811875C0.7838232735,12.532610918749999,0.7498820535,12.09991831875,0.7838232735,11.63394311875C0.8856482125,10.269297618749999,1.3608330524999999,9.00450491875,2.2093766125,7.93941591875C3.1258035125,6.80775901875,4.3137643125,6.04222637875,5.7393160125,5.60953399875C6.0787334125,5.50968184875,6.3842101125,5.44311386375,6.7236271125,5.40982970575C7.0630450125,5.37654555575,7.3685212125,5.34326171875,7.7079382125,5.34326171875C9.1674318125,5.34326171875,10.5929861125,5.34326171875,12.0524818125,5.34326171875C12.1203638125,5.34326171875,12.1543078125,5.34326171875,12.2221888125,5.34326171875C12.2561308125,5.34326171875,12.2900718125,5.37654586875,12.2900718125,5.40982970575C12.2900718125,5.47639768875,12.2900718125,5.54296567875,12.2900718125,5.60953399875C12.2900718125,6.87432671875,12.2900718125,8.13912011875,12.2900718125,9.40391301875C12.2900718125,9.43719721875,12.2900718125,9.503764618750001,12.2900718125,9.53704881875C12.2900718125,9.57033301875,12.2900718125,9.60361721875,12.2900718125,9.60361721875C12.2900718125,9.63690141875,12.2561308125,9.67018551875,12.2221888125,9.67018551875C12.1543078125,9.67018551875,12.0864238125,9.67018551875,12.0185408125,9.67018551875C10.6269283125,9.67018551875,9.2013759125,9.67018551875,7.8097644125,9.67018551875C7.7418809125,9.67018551875,7.6400561125,9.67018551875,7.5721717125,9.67018551875C6.7575698125,9.70346971875,6.0787349125,10.036309718750001,5.6035514125,10.735273818749999C5.3999014125,11.03483061875,5.2641344125,11.36767101875,5.2301926125,11.73379611875C5.0944252125,12.83216861875,5.8072028125,13.93054201875,6.9612207125,14.26338101875C7.1648712125,14.32995031875,7.3685226125,14.36323351875,7.5721717125,14.36323351875C7.6400561125,14.36323351875,7.7418809125,14.36323351875,7.8097644125,14.36323351875C9.2013740125,14.36323351875,10.5929861125,14.36323351875,11.9845978125,14.36323351875C12.0524818125,14.36323351875,12.1203658125,14.36323351875,12.1882498125,14.36323351875C12.2561308125,14.36323351875,12.2900748125,14.39651771875,12.2900748125,14.46308521875C12.2900748125,14.49636931875,12.2900748125,14.56293771875,12.2900748125,14.59622291875C12.2900748125,15.89429971875,12.2900748125,17.19237571875,12.2900748125,18.49045471875C12.2900748125,18.52373671875,12.2900748125,18.590305718750002,12.2900748125,18.623590718750002C12.2900748125,18.69015971875,12.2900748125,18.69015971875,12.2221928125,18.69015971875C12.1543098125,18.69015971875,12.1203658125,18.69015971875,12.0524838125,18.69015971875C11.2039358125,18.72343971875,10.3893328125,18.72343971875,9.5747328125,18.72343971875Z" fill="#2F318B" fill-opacity="1"/></g><g><path d="M9.5746794,19.47343971875L7.7078834,19.47343971875Q7.1589403,19.47343971875,6.8406663,19.435468718750002Q5.7329473,19.32545271875,4.6570368,18.88121671875Q1.6293119,17.65869271875,0.50134295,14.68965071875Q0.18555334,13.82277771875,0.086854681,13.09687231875Q-0.035174869,12.25944991875,0.014245249,11.58096551875Q0.18804474,9.25171181875,1.5994188,7.48015951875Q3.1023631,5.62419941875,5.5093546,4.89361461875Q6.1135149,4.71584801875,6.6461525,4.66361620275Q6.6743202,4.66085397475,6.7302694,4.65532102075Q7.3578134,4.59326171875,7.7078848,4.59326171875L12.222136,4.59326171875Q12.569093,4.59326171875,12.816658,4.83603226875Q13.061469,5.07610451875,13.061469,5.40982973875L13.061469,9.60361721875Q13.061469,9.93734171875,12.816658,10.17741441875Q12.569093,10.42018551875,12.222135,10.42018551875L7.5895138,10.42018551875Q6.7142673,10.46161171875,6.2470803,11.148814218750001Q6.029242,11.46924161875,5.998476,11.80111741875L5.997447,11.812216718750001L5.9960794,11.823280318750001Q5.9267712,12.38399651875,6.2573609,12.87477491875Q6.5945377,13.37533001875,7.1805797,13.54435541875L7.1938777,13.54819011875L7.2070251,13.55248831875Q7.3928566,13.61323351875,7.5721183,13.61323351875L12.188196,13.61323351875Q12.560598,13.61323351875,12.812406,13.86015321875Q13.061474,14.10438921875,13.061474,14.46308521875L13.061474,18.623590718750002Q13.061474,19.44015971875,12.222139,19.44015971875L12.067855,19.44015971875Q11.204575,19.47343971875,9.5746794,19.47343971875ZM12.05243,18.69015971875C11.203882,18.72343971875,10.389279,18.72343971875,9.5746794,18.72343971875L7.7078834,18.72343971875C7.4363494,18.72343971875,7.1987581,18.72343971875,6.9272237,18.69015671875C6.2483883,18.623587718750002,5.6034946,18.457166718750003,4.9586029,18.190894718750002C3.2275748,17.49193171875,1.8699042,16.127284718749998,1.2250119,14.42980001875C1.0553032,13.96382331875,0.91953576,13.49784751875,0.85165328,12.99858761875C0.78376961,12.532610918749999,0.7498284,12.09991831875,0.78376961,11.63394311875C0.88559455,10.269297618749999,1.3607794,9.004504718749999,2.2093229,7.93941571875C3.1257498,6.80775901875,4.3137107,6.04222631875,5.7392621,5.60953401875C6.07868,5.50968193875,6.3841562,5.44311391875,6.7235737,5.40982973875C7.0629916,5.37654560875,7.3684678,5.34326177875,7.7078848,5.34326177875L12.222136,5.34326177875C12.256078,5.34326177875,12.290018,5.37654596875,12.290018,5.40982973875L12.290018,9.60361721875C12.290018,9.63690141875,12.256078,9.67018551875,12.222136,9.67018551875L7.5721183,9.67018551875C6.7575159,9.70346971875,6.078681,10.036309718750001,5.603498,10.735274318750001C5.399848,11.034831018750001,5.2640805,11.36767101875,5.2301393,11.73379611875C5.0943718,12.83216861875,5.8071489,13.93054201875,6.9611673,14.26338101875C7.1648178,14.32995031875,7.3684692,14.36323351875,7.5721183,14.36323351875L12.188196,14.36323351875C12.256078,14.36323351875,12.290022,14.39651771875,12.290022,14.46308521875L12.290022,18.623590718750002C12.290022,18.69015971875,12.290022,18.69015971875,12.222139,18.69015971875L12.05243,18.69015971875Z" fill-rule="evenodd" fill="#FFFFFF" fill-opacity="1"/></g></g></svg>